<svg xmlns="http://www.w3.org/2000/svg"
     viewBox="75,75,235,235">
    <path d="M252.791 99.000 C 239.261 110.699,238.169 122.533,249.570 133.933 C 261.709 146.072,273.236 146.764,284.000 136.000 C 305.233 114.767,275.425 79.429,252.791 99.000 M281.473 108.462 C 289.716 120.230,284.144 133.641,270.327 135.289 C 257.099 136.866,248.000 129.946,248.000 118.310 C 248.000 99.778,270.711 93.096,281.473 108.462 M149.427 114.051 C 145.117 125.282,155.836 132.000,178.062 132.000 C 197.277 132.000,204.000 135.625,204.000 145.986 C 204.000 146.719,195.000 153.925,184.000 162.000 C 159.991 179.624,158.368 190.263,176.111 213.713 C 192.022 234.741,191.464 236.000,166.236 236.000 C 143.015 236.000,137.980 239.333,142.011 252.036 C 143.971 258.209,148.076 260.000,160.270 260.000 C 179.128 260.000,179.989 263.546,164.000 275.368 C 151.024 284.961,148.576 296.179,157.791 303.826 C 164.845 309.681,167.622 308.156,201.192 280.000 C 233.969 252.508,233.814 252.930,221.249 225.483 C 213.844 209.309,211.953 200.968,214.704 196.608 C 221.338 186.090,226.928 187.168,231.337 199.818 C 236.298 214.048,277.583 218.552,288.000 206.000 C 295.779 196.627,285.958 188.000,267.510 188.000 L 252.000 188.000 252.000 168.000 C 252.000 145.769,248.803 141.193,218.895 120.616 C 197.703 106.035,154.085 101.913,149.427 114.051 M205.847 117.393 C 210.247 120.611,211.987 124.786,210.160 127.742 C 207.954 131.310,205.880 131.480,202.749 128.349 C 200.357 125.957,188.966 124.000,177.436 124.000 C 157.704 124.000,148.972 120.361,154.775 114.558 C 159.531 109.802,198.417 111.961,205.847 117.393 M99.047 154.829 C 104.022 155.786,111.222 155.749,115.047 154.748 C 118.871 153.747,114.800 152.964,106.000 153.009 C 97.200 153.053,94.071 153.872,99.047 154.829 M163.047 154.829 C 168.022 155.786,175.222 155.749,179.047 154.748 C 182.871 153.747,178.800 152.964,170.000 153.009 C 161.200 153.053,158.071 153.872,163.047 154.829 M206.407 206.659 C 229.244 255.864,229.183 256.000,184.126 256.000 C 150.667 256.000,148.000 255.409,148.000 248.000 C 148.000 240.821,150.667 240.000,174.000 240.000 C 204.700 240.000,204.214 241.239,184.000 214.465 C 165.688 190.210,165.017 186.983,176.000 176.000 C 187.297 164.703,186.614 164.013,206.407 206.659 M127.047 182.829 C 132.022 183.786,139.222 183.749,143.047 182.748 C 146.871 181.747,142.800 180.964,134.000 181.009 C 125.200 181.053,122.071 181.872,127.047 182.829 M279.000 194.214 C 292.538 198.370,281.606 204.000,260.000 204.000 C 238.744 204.000,236.000 203.094,236.000 196.077 C 236.000 188.447,257.217 187.528,279.000 194.214 M101.055 210.870 C 107.135 211.790,116.135 211.765,121.055 210.816 C 125.975 209.866,121.000 209.114,110.000 209.144 C 99.000 209.174,94.975 209.951,101.055 210.870 M208.000 263.374 C 208.000 270.033,167.663 300.726,161.845 298.494 C 152.117 294.761,155.110 289.046,174.575 274.183 C 191.977 260.896,208.000 255.714,208.000 263.374"
    fill="red"/>
</svg>